<?xml version="1.0" encoding="UTF-8" standalone="no"?>
<svg
   xmlns:dc="http://purl.org/dc/elements/1.1/"
   xmlns:cc="http://creativecommons.org/ns#"
   xmlns:rdf="http://www.w3.org/1999/02/22-rdf-syntax-ns#"
   xmlns:svg="http://www.w3.org/2000/svg"
   xmlns="http://www.w3.org/2000/svg"
   xmlns:sodipodi="http://sodipodi.sourceforge.net/DTD/sodipodi-0.dtd"
   xmlns:inkscape="http://www.inkscape.org/namespaces/inkscape"
   id="Layer_1"
   enable-background="new 0 0 496.26 496.26"
   height="512"
   viewBox="0 0 496.26 496.26"
   width="512"
   version="1.1"
   sodipodi:docname="files.svg"
   inkscape:version="0.92.4 (5da689c313, 2019-01-14)">
  <metadata
     id="metadata9">
    <rdf:RDF>
      <cc:Work
         rdf:about="">
        <dc:format>image/svg+xml</dc:format>
        <dc:type
           rdf:resource="http://purl.org/dc/dcmitype/StillImage" />
      </cc:Work>
    </rdf:RDF>
  </metadata>
  <defs
     id="defs7" />
  <sodipodi:namedview
     pagecolor="#ffffff"
     bordercolor="#666666"
     borderopacity="1"
     objecttolerance="10"
     gridtolerance="10"
     guidetolerance="10"
     inkscape:pageopacity="0"
     inkscape:pageshadow="2"
     inkscape:window-width="798"
     inkscape:window-height="480"
     id="namedview5"
     showgrid="false"
     inkscape:zoom="0.4609375"
     inkscape:cx="256"
     inkscape:cy="256"
     inkscape:window-x="0"
     inkscape:window-y="0"
     inkscape:window-maximized="0"
     inkscape:current-layer="Layer_1" />
  <path
     d="m302.765 20.395h-257.307c-24.922 0-45.198 20.275-45.198 45.197 0 329.751-1.925 309.456 4.692 316.073 96.335 96.334 90.227 90.74 93.596 92.406 4.818 2.418-8.366 1.692 204.216 1.692 24.922 0 45.198-20.275 45.198-45.197v-364.974c.001-24.922-20.275-45.197-45.197-45.197zm-213.086 400.742-34.791-34.791h34.791zm226.284 9.429c0 7.277-5.92 13.197-13.198 13.197h-181.086v-73.418c0-8.837-7.164-16-16-16h-73.419v-288.753c0-7.277 5.92-13.197 13.198-13.197h257.307c7.277 0 13.198 5.92 13.198 13.197zm106.149-364.974v364.975c0 24.922-20.276 45.197-45.198 45.197-8.836 0-16-7.163-16-16s7.164-16 16-16c7.277 0 13.198-5.92 13.198-13.197v-364.975c0-7.277-5.92-13.197-13.198-13.197-8.836 0-16-7.163-16-16s7.164-16 16-16c24.922 0 45.198 20.275 45.198 45.197zm74.148 0v364.975c0 24.922-20.275 45.197-45.198 45.197-8.836 0-16-7.163-16-16s7.164-16 16-16c7.277 0 13.198-5.92 13.198-13.197v-364.975c0-7.277-5.92-13.197-13.198-13.197-8.836 0-16-7.163-16-16s7.164-16 16-16c24.923 0 45.198 20.275 45.198 45.197z"
     id="path2"
     style="fill:#ffffff" />
</svg>
